<?xml version="1.0" encoding="UTF-8"?>
<svg version="1.1" xmlns="http://www.w3.org/2000/svg" width="1130" height="1092">
<path d="M0 0 C0.66 0 1.32 0 2 0 C5.34783645 21.69454168 8.69549649 43.38911059 12.04296684 65.08370876 C13.44672293 74.18127955 14.85049537 83.27884782 16.25441766 92.37639296 C16.55787418 94.34282837 16.86132494 96.30926468 17.16476989 98.27570188 C17.91886372 103.16250284 18.67302954 108.04929266 19.42734146 112.93605995 C20.91800404 122.59404323 22.40706802 132.25226876 23.89300537 141.91098022 C24.47505685 145.69311998 25.05728743 149.47523212 25.63964844 153.25732422 C25.78157985 154.17920556 25.92351127 155.1010869 26.06974363 156.05090404 C27.94662974 168.23622733 29.84794812 180.417444 31.77285647 192.59526956 C32.49731828 197.18511058 33.21669538 201.7757514 33.93581545 206.36643201 C34.59412656 210.56462583 35.26117122 214.76130215 35.93528461 218.95698595 C36.43374637 222.07562337 36.9192047 225.19628888 37.40673828 228.31665039 C37.58574299 229.41129923 37.7647477 230.50594807 37.94917679 231.63376808 C39.17793242 239.6189065 39.36005736 245.37208015 35.11328125 252.52734375 C34.51185303 253.55424316 33.9104248 254.58114258 33.29077148 255.63916016 C32.63794189 256.7276123 31.9851123 257.81606445 31.3125 258.9375 C30.63047111 260.09357786 29.94958111 261.2503283 29.26977539 262.40771484 C27.8713759 264.78513554 26.46704248 267.15888499 25.05761719 269.52978516 C22.56264832 273.73045048 20.10691347 277.95368749 17.65136719 282.17749023 C14.20143293 288.11068914 10.73383011 294.03359388 7.27050781 299.95898438 C0.64978188 311.28852891 -5.94935227 322.62976603 -12.5 334 C-20.19128838 347.35009178 -27.9548291 360.65733042 -35.72949219 373.95898438 C-42.35021812 385.28852891 -48.94935227 396.62976603 -55.5 408 C-63.19128838 421.35009178 -70.9548291 434.65733042 -78.72949219 447.95898438 C-85.35021812 459.28852891 -91.94935227 470.62976603 -98.5 482 C-106.19128838 495.35009178 -113.9548291 508.65733042 -121.72949219 521.95898438 C-128.35021812 533.28852891 -134.94935227 544.62976603 -141.5 556 C-149.19128838 569.35009178 -156.9548291 582.65733042 -164.72949219 595.95898438 C-171.35021812 607.28852891 -177.94935227 618.62976603 -184.5 630 C-192.19128838 643.35009178 -199.9548291 656.65733042 -207.72949219 669.95898438 C-214.35021812 681.28852891 -220.94935227 692.62976603 -227.5 704 C-235.19128838 717.35009178 -242.9548291 730.65733042 -250.72949219 743.95898438 C-257.35021812 755.28852891 -263.94935227 766.62976603 -270.5 778 C-278.19128838 791.35009178 -285.9548291 804.65733042 -293.72949219 817.95898438 C-300.35021812 829.28852891 -306.94935227 840.62976603 -313.5 852 C-321.19128838 865.35009178 -328.9548291 878.65733042 -336.72949219 891.95898438 C-343.35021812 903.28852891 -349.94935227 914.62976603 -356.5 926 C-364.19128838 939.35009178 -371.9548291 952.65733042 -379.72949219 965.95898438 C-381.46606836 968.93065505 -383.20201192 971.90269374 -384.9375 974.875 C-385.51395264 975.86218018 -386.09040527 976.84936035 -386.68432617 977.86645508 C-390.94201655 985.16611349 -395.16196052 992.48700606 -399.375 999.8125 C-404.49286054 1008.70896785 -409.68640606 1017.5565694 -414.9375 1026.375 C-420.53709098 1035.77888803 -426.02496555 1045.23771981 -431.4375 1054.75 C-440.75000484 1071.09655742 -440.75000484 1071.09655742 -444.375 1077.25 C-444.90178345 1078.16217285 -444.90178345 1078.16217285 -445.43920898 1079.09277344 C-446.23611646 1080.43062065 -447.10933409 1081.72265474 -448 1083 C-448.66 1083 -449.32 1083 -450 1083 C-450.3810791 1082.30777344 -450.7621582 1081.61554688 -451.15478516 1080.90234375 C-457.97685403 1068.52600608 -464.83290089 1056.18097921 -472 1044 C-477.66570544 1034.36685542 -483.13046991 1024.63370476 -488.53735352 1014.85327148 C-493.72917097 1005.4664817 -499.0244858 996.14352078 -504.36767578 986.84228516 C-507.54220846 981.31462894 -510.70968568 975.78293826 -513.875 970.25 C-514.21455719 969.65667877 -514.55411438 969.06335754 -514.90396118 968.45205688 C-519.69420874 960.07882065 -524.42927739 951.676725 -529.125 943.25 C-533.63770522 935.15275721 -538.24150274 927.11727672 -542.9375 919.125 C-548.62124552 909.44906187 -554.1079026 899.67444061 -559.53710938 889.85375977 C-564.72896015 880.46678034 -570.02439531 871.14367831 -575.36767578 861.84228516 C-578.54220846 856.31462894 -581.70968568 850.78293826 -584.875 845.25 C-585.38433578 844.36001816 -585.38433578 844.36001816 -585.90396118 843.45205688 C-590.69420874 835.07882065 -595.42927739 826.676725 -600.125 818.25 C-604.63770522 810.15275721 -609.24150274 802.11727672 -613.9375 794.125 C-619.61907691 784.45275369 -625.1045063 774.68231576 -630.53051758 764.86474609 C-633.87003242 758.82554016 -637.22692918 752.79870279 -640.65942383 746.81176758 C-641.63058795 745.11421216 -642.59408223 743.41224406 -643.54956055 741.70581055 C-646.11817814 737.14312879 -648.81312917 732.74245645 -651.73828125 728.3984375 C-652.35493652 727.43518555 -652.9715918 726.47193359 -653.60693359 725.47949219 C-654.7718132 723.66303816 -655.98309483 721.87493554 -657.25244141 720.12988281 C-661.46309718 713.39029321 -661.01043321 708.05958812 -659.84169006 700.53866577 C-659.69680525 699.5272154 -659.55192043 698.51576503 -659.40264517 697.47366464 C-659.09781245 695.35667264 -658.78644554 693.24061204 -658.46881032 691.12550306 C-658.02923789 688.19492558 -657.60735365 685.26253642 -657.19346428 682.32823563 C-656.36841573 676.49679706 -655.5160876 670.66951054 -654.66186523 664.84228516 C-654.33942166 662.6336652 -654.01710921 660.42502609 -653.69491577 658.21636963 C-652.65219106 651.07353539 -651.60561146 643.93126852 -650.55859375 636.7890625 C-650.19613478 634.31537355 -649.83368328 631.84168351 -649.47123909 629.3679924 C-647.96551041 619.09338238 -646.45876299 608.81892267 -644.94923306 598.54487038 C-644.56095314 595.90214815 -644.17267751 593.2594253 -643.78442383 590.61669922 C-643.68795467 589.96007036 -643.5914855 589.30344149 -643.49209303 588.62691478 C-641.91948978 577.92135972 -640.3544238 567.21471638 -638.7923206 556.5076247 C-637.18304782 545.47810753 -635.56684585 534.44961921 -633.9442535 523.42205274 C-633.03543091 517.24421796 -632.12966553 511.06597039 -631.23122978 504.88661575 C-630.38954401 499.09866209 -629.53941124 493.31201404 -628.68258286 487.52628326 C-628.36901483 485.39857468 -628.05858052 483.27040169 -627.75142479 481.14175797 C-627.3336334 478.2496697 -626.90486085 475.35942578 -626.47312927 472.46939087 C-626.35260002 471.61642005 -626.23207077 470.76344922 -626.10788912 469.8846308 C-625.80710117 467.91142029 -625.41341971 465.95272047 -625 464 C-624.34 463.67 -623.68 463.34 -623 463 C-622.44054687 464.0209375 -621.88109375 465.041875 -621.3046875 466.09375 C-615.85246465 475.99802203 -610.23743204 485.79711866 -604.5246582 495.55322266 C-600.17689843 502.97838752 -595.85879718 510.41994096 -591.5625 517.875 C-590.94028564 518.95458984 -590.31807129 520.03417969 -589.67700195 521.14648438 C-588.41488483 523.3368252 -587.15292215 525.52725502 -585.89111328 527.71777344 C-582.76319852 533.14659942 -579.63141552 538.57319281 -576.5 544 C-575.24998121 546.16665583 -573.99998122 548.3333225 -572.75 550.5 C-572.13125 551.5725 -571.5125 552.645 -570.875 553.75 C-475.25 719.5 -475.25 719.5 -473.37231445 722.75512695 C-472.13181188 724.90501869 -470.89077044 727.05459959 -469.64916992 729.20385742 C-466.72456618 734.26796479 -463.80546233 739.33500902 -460.90567017 744.4133606 C-459.53936128 746.80537117 -458.16994714 749.19559708 -456.80029297 751.58569336 C-455.83778986 753.26828963 -454.87977069 754.95344836 -453.921875 756.63867188 C-453.33535156 757.66154297 -452.74882812 758.68441406 -452.14453125 759.73828125 C-451.63253174 760.63587158 -451.12053223 761.53346191 -450.59301758 762.45825195 C-448.90765192 765.14734649 -447.02636921 767.56051152 -445 770 C-435.91068056 754.45766641 -426.87818423 738.88391147 -417.89111328 723.28222656 C-414.76319852 717.85340058 -411.63141552 712.42680719 -408.5 707 C-407.24998121 704.83334417 -405.99998122 702.6666775 -404.75 700.5 C-382.25 661.5 -359.75 622.5 -337.25 583.5 C-336.63116943 582.42733887 -336.01233887 581.35467773 -335.37475586 580.24951172 C-334.12564482 578.08442929 -332.87645871 575.91939018 -331.62719727 573.75439453 C-328.48797691 568.31384294 -325.35009437 562.87252784 -322.21484375 557.4296875 C-316.19252671 546.97793801 -310.15330663 536.53700452 -304.0625 526.125 C-298.98724877 517.44737759 -293.97741233 508.73394432 -289 500 C-283.4599827 490.27884383 -277.86625191 480.59105342 -272.21655273 470.93310547 C-266.06233258 460.40915375 -259.97630004 449.84619863 -253.89111328 439.28222656 C-250.76319852 433.85340058 -247.63141552 428.42680719 -244.5 423 C-243.24998121 420.83334417 -241.99998122 418.6666775 -240.75 416.5 C-203.25 351.5 -165.75 286.5 -128.25 221.5 C-127.63116943 220.42733887 -127.01233887 219.35467773 -126.37475586 218.24951172 C-125.12564482 216.08442929 -123.87645871 213.91939018 -122.62719727 211.75439453 C-119.48797691 206.31384294 -116.35009437 200.87252784 -113.21484375 195.4296875 C-107.19252671 184.97793801 -101.15330663 174.53700452 -95.0625 164.125 C-89.98724877 155.44737759 -84.97741233 146.73394432 -80 138 C-74.4599827 128.27884383 -68.86625191 118.59105342 -63.21655273 108.93310547 C-57.06233258 98.40915375 -50.97630004 87.84619863 -44.89111328 77.28222656 C-41.14053601 70.77270411 -37.38498011 64.2660522 -33.62963867 57.75927734 C-30.47614838 52.29465337 -27.3253296 46.82852098 -24.1796875 41.359375 C-21.07330256 35.96004027 -17.95899567 30.56536088 -14.83740234 25.17480469 C-13.59354286 23.02556887 -12.35173973 20.87514186 -11.11181641 18.72363281 C-9.31122794 15.60298822 -7.50078076 12.48828239 -5.6875 9.375 C-4.86934814 7.9513916 -4.86934814 7.9513916 -4.03466797 6.49902344 C-3.28080811 5.2117334 -3.28080811 5.2117334 -2.51171875 3.8984375 C-1.85369263 2.76414307 -1.85369263 2.76414307 -1.18237305 1.60693359 C-0.59709839 0.81150146 -0.59709839 0.81150146 0 0 Z " fill="#000000" transform="translate(943,9)"/>
<path d="M0 0 C3.09863234 2.869603 5.17759278 5.70301633 7.25 9.375 C7.85191162 10.43195068 8.45382324 11.48890137 9.07397461 12.57788086 C10.02735718 14.27182983 10.02735718 14.27182983 11 16 C12.35227378 18.37812813 13.70941919 20.75346522 15.06640625 23.12890625 C15.40386368 23.72095352 15.74132111 24.31300079 16.08900452 24.92298889 C18.96989321 29.97008689 21.93126368 34.96432916 24.9375 39.9375 C29.57745972 47.62489089 34.17583709 55.33575443 38.75 63.0625 C39.0860022 63.63002991 39.42200439 64.19755981 39.76818848 64.7822876 C41.14023229 67.099814 42.51214313 69.41741899 43.88375854 71.73519897 C46.29449099 75.80885725 48.70715453 79.88136623 51.12109375 83.953125 C57.78004155 95.18551284 64.4332358 106.42124349 71.07373047 117.66455078 C75.31396894 124.84243685 79.56200274 132.01568466 83.8125 139.1875 C84.47540039 140.30608398 85.13830078 141.42466797 85.82128906 142.57714844 C88.9867384 147.91798609 92.15299242 153.25834366 95.3210907 158.59761047 C96.78013792 161.05673211 98.2387697 163.51610004 99.69735718 165.97549438 C100.72206106 167.70290158 101.74737455 169.42994711 102.77270508 171.15698242 C104.00017967 173.226758 105.21793249 175.30234384 106.42382812 177.38476562 C107.8838301 179.91814398 107.8838301 179.91814398 109.37304688 181.78710938 C116.50639765 191.40798761 109.42997744 214.54494744 107.9128418 225.54956055 C107.58863267 227.92935842 107.26487951 230.30921845 106.94153976 232.6891346 C106.23930448 237.850296 105.53392662 243.01101763 104.82574272 248.17136574 C103.76974698 255.86639398 102.7198547 263.56224661 101.67120988 271.25827961 C99.89825735 284.26897078 98.12074378 297.27903486 96.34069824 310.28875732 C93.77755831 329.02232919 91.22097818 347.75679267 88.66603318 366.49148375 C87.74796169 373.22336486 86.82978122 379.9552311 85.91161336 386.68709907 C85.67917205 388.39133591 85.44673432 390.09557323 85.21430014 391.79981104 C83.55324197 403.97886573 81.89136618 416.15780862 80.22892933 428.3366752 C73.12335232 480.39229056 66.04067007 532.45099035 58.97265625 584.51171875 C58.72349764 586.34689741 58.47433871 588.18207602 58.22517943 590.01725459 C55.28260019 611.69097435 52.34078102 633.36479724 49.39929467 655.03866535 C45.27806956 685.40515579 41.15568553 715.7714889 37.03275275 746.13774753 C36.60650288 749.27717147 36.18026428 752.41659694 35.75403619 755.55602384 C31.53352277 786.64258234 27.31220649 817.72902842 23.07617188 848.81347656 C22.93826768 849.82543201 22.80036348 850.83738746 22.65828037 851.88000822 C20.1086747 870.58710282 17.55376341 889.29347233 15 908 C-29.22 908 -73.44 908 -119 908 C-118.36376993 899.72900905 -117.65557458 891.59704537 -116.56356812 883.39356995 C-116.42034626 882.29613521 -116.27712441 881.19870048 -116.1295625 880.06801015 C-115.65134444 876.41021729 -115.16819995 872.75309283 -114.68505859 869.09594727 C-114.33620284 866.43559861 -113.98762375 863.77521503 -113.63938141 861.11478615 C-112.88227167 855.33507079 -112.12260233 849.55569643 -111.36123276 843.77654076 C-110.22704084 835.16737517 -109.09687793 826.55768397 -107.9675224 817.94788278 C-106.0589716 803.39863048 -104.14720548 788.84980237 -102.23364258 774.3012085 C-100.32069853 759.75719458 -98.40926323 745.2129836 -96.49975586 730.66851807 C-96.38013517 729.75738691 -96.26051449 728.84625576 -96.13726893 727.90751457 C-95.52890949 723.27366983 -94.92057909 718.63982127 -94.31226206 714.00597095 C-93.07274032 704.56399717 -91.83300783 695.12205106 -90.59320068 685.68011475 C-90.46890878 684.7335505 -90.34461687 683.78698626 -90.21655855 682.81173825 C-87.38099393 661.21748624 -84.54323579 639.62352257 -81.70536846 618.02957308 C-77.39818016 585.25517695 -73.09273041 552.48055323 -68.79003906 519.70556641 C-68.66258855 518.73473611 -68.53513805 517.76390581 -68.4038254 516.76365641 C-66.60782512 503.08288043 -64.81197036 489.40208536 -63.01617002 475.72128314 C-62.37775639 470.85770777 -61.73933868 465.99413293 -61.10092163 461.13055801 C-60.97471309 460.16907799 -60.84850454 459.20759797 -60.7184715 458.21698219 C-59.44823803 448.54011186 -58.17799381 438.86324294 -56.90774262 429.18637493 C-56.52873653 426.2990692 -56.14973397 423.411763 -55.77073193 420.52445674 C-52.27236601 393.87337145 -48.77288368 367.22243297 -45.27250385 340.57161212 C-43.09556033 323.99698267 -40.91881709 307.42232693 -38.7421875 290.84765625 C-38.62506991 289.95583088 -38.50795232 289.06400551 -38.38728571 288.14515513 C-32.27950156 241.63543011 -26.17979287 195.12466352 -20.09868622 148.61144257 C-19.09346891 140.92282574 -18.08782251 133.23426508 -17.08209229 125.54571533 C-16.44859293 120.70251667 -15.81511374 115.85931537 -15.18164062 111.01611328 C-15.02955312 109.85336946 -14.87746562 108.69062565 -14.72076941 107.49264717 C-12.98028867 94.18567442 -11.24175587 80.87845055 -9.50668061 67.57077187 C-8.47534131 59.66145218 -7.44207087 51.75238651 -6.4071492 43.84353477 C-5.71887328 38.58290874 -5.03301426 33.32197623 -4.3492229 28.0607655 C-3.94393408 24.94717457 -3.53620632 21.833907 -3.12769985 18.72073674 C-2.94254369 17.30585941 -2.75840908 15.89084794 -2.57538319 14.47569346 C-2.32932651 12.57420417 -2.07928743 10.67323145 -1.82901001 8.77229309 C-1.62329848 7.19523448 -1.62329848 7.19523448 -1.41343117 5.58631611 C-1 3 -1 3 0 0 Z " fill="#302681" transform="translate(119,132)"/>
<path d="M0 0 C3.02691714 3.02691714 2.93682402 6.77271855 3.52113342 10.86129761 C3.73136401 12.2618165 3.73136401 12.2618165 3.94584167 13.69062871 C4.41853747 16.85366084 4.87921842 20.01833012 5.34008789 23.18310547 C5.67792886 25.46058833 6.01650575 27.73796212 6.35575962 30.01523495 C7.28978986 36.29952362 8.2133996 42.58530732 9.1354394 48.87136483 C10.02685412 54.94287054 10.92778148 61.01296807 11.82778493 67.08320532 C13.66970416 79.5080637 15.50405091 91.93402886 17.334198 104.36062622 C19.95612299 122.16281895 22.58861612 139.96343892 25.22334565 157.76374049 C26.28037937 164.90539177 27.3370802 172.04709232 28.39375305 179.188797 C28.51109452 179.98184932 28.62843599 180.77490164 28.74933325 181.59198584 C30.55826777 193.81801896 32.36532158 206.04432917 34.17131042 218.27079773 C40.92468267 263.98953775 47.69936819 309.70507323 54.4921875 355.41796875 C54.72668453 356.99607245 54.96118152 358.57417615 55.19567847 360.15227985 C57.26943206 374.10794338 59.34348768 388.06356201 61.41795635 402.01911926 C64.16917812 420.52747592 66.91928553 439.03599761 69.66801731 457.54472423 C70.40203041 462.48723071 71.13611724 467.42972624 71.87024784 472.37221527 C72.28037756 475.1334175 72.69050507 477.89462006 73.10063171 480.65582275 C73.2010443 481.3318522 73.30145688 482.00788165 73.40491227 482.70439684 C74.68116722 491.29690901 75.95693416 499.88949342 77.23225456 508.48214436 C82.08295641 541.16352499 82.08295641 541.16352499 86.98331964 573.83748591 C87.36251262 576.35339941 87.74119562 578.86938908 88.11967945 581.38540936 C88.35729342 582.96473952 88.59491175 584.54406903 88.83253479 586.12339783 C88.94574501 586.87592447 89.05895523 587.62845111 89.17559606 588.40378159 C89.71154125 591.96376529 90.24928918 595.52345739 90.79141045 599.08250618 C91.35290968 602.77118526 91.90950788 606.46057213 92.46508789 610.15014648 C92.62478373 611.18733007 92.78447956 612.22451366 92.94901466 613.29312706 C93.09011854 614.2362607 93.23122242 615.17939434 93.37660217 616.15110779 C93.4982628 616.95119483 93.61992342 617.75128187 93.74527073 618.57561398 C94.03883854 621.36964588 94 624.1905879 94 627 C44.17 627 -5.66 627 -57 627 C-61.59478242 598.28260986 -61.59478242 598.28260986 -63.37680054 585.76785278 C-63.5861686 584.30846845 -63.79571652 582.84910992 -64.00542319 581.3897742 C-64.56810138 577.47057309 -65.12829706 573.551021 -65.68800068 569.63139415 C-66.29731754 565.3676337 -66.90905299 561.10422011 -67.52046204 556.84075928 C-68.71342337 548.51941207 -69.90422663 540.19775747 -71.09427188 531.87599279 C-72.48752369 522.13386808 -73.88300742 512.39206344 -75.27856727 502.65026914 C-77.77461949 485.22590634 -80.26873556 467.80126698 -82.76171875 450.37646484 C-85.16563892 433.57418755 -87.57084098 416.77209446 -89.97753906 399.97021484 C-90.12543252 398.93772484 -90.27332599 397.90523484 -90.42570107 396.84145726 C-90.64720445 395.2950771 -90.64720445 395.2950771 -90.87318265 393.71745694 C-91.17070143 391.64038927 -91.46821972 389.56332154 -91.76573753 387.48625374 C-91.9125623 386.46122419 -92.05938707 385.43619464 -92.21066108 384.3801036 C-94.52334824 368.23413582 -96.83486153 352.08799997 -99.14625495 335.94184694 C-99.97572342 330.14771795 -100.80534541 324.35361097 -101.63511451 318.55952502 C-102.04030718 315.73003595 -102.44542886 312.90053672 -102.85053837 310.07103574 C-103.37724006 306.39230045 -103.90423574 302.71360745 -104.43142021 299.03494132 C-105.67165036 290.37741681 -106.90681343 281.7192262 -108.1298275 273.05925179 C-108.58311579 269.85334766 -109.03685527 266.64750769 -109.49090576 263.44171143 C-109.5994616 262.67467614 -109.70801744 261.90764085 -109.81986286 261.11736207 C-111.20454705 251.35072851 -112.67500213 241.60276776 -114.23614502 231.86248779 C-114.70167695 228.8785292 -115.16437458 225.8941505 -115.62553334 222.90951324 C-116.03136403 220.35580797 -116.47383397 217.81061206 -116.91971397 215.26365852 C-118.66216197 204.49607927 -117.15616051 196.63951065 -110.80423927 187.51849174 C-109.54933916 185.86082657 -108.27111026 184.22064842 -106.97412109 182.59570312 C-103.51453518 178.04681401 -100.85754988 173.03594512 -98.0625 168.0625 C-96.88961595 166.04833007 -95.71252608 164.0366034 -94.53125 162.02734375 C-91.03648891 156.06291291 -87.54724943 150.0952858 -84.0625 144.125 C-83.48765869 143.14023682 -82.91281738 142.15547363 -82.32055664 141.14086914 C-77.38705923 132.68079654 -72.49397776 124.19769048 -67.60571289 115.71142578 C-62.85585468 107.47030809 -58.06904959 99.2513309 -53.26953125 91.0390625 C-48.98777878 83.70716277 -44.73789061 76.35732762 -40.5 69 C-35.12838906 59.67444039 -29.72447752 50.36854786 -24.29150391 41.07861328 C-21.1524326 35.70612613 -18.03012738 30.32452964 -14.9296875 24.9296875 C-14.42021576 24.04376923 -14.42021576 24.04376923 -13.90045166 23.13995361 C-12.25514271 20.27843134 -10.61213111 17.41565415 -8.97265625 14.55078125 C-6.12335532 9.59088704 -3.26690244 4.69718809 0 0 Z " fill="#302681" transform="translate(1006,413)"/>
<path d="M0 0 C177.54 0 355.08 0 538 0 C538 46.86 538 93.72 538 142 C360.46 142 182.92 142 0 142 C0 95.14 0 48.28 0 0 Z " fill="#302681" transform="translate(230,0)"/>
<path d="M0 0 C46.86 0 93.72 0 142 0 C142 80.85 142 161.7 142 245 C95.14 245 48.28 245 0 245 C0 164.15 0 83.3 0 0 Z " fill="#302682" transform="translate(427,177)"/>
</svg>
