<?xml version="1.0" encoding="UTF-8"?>
<!DOCTYPE svg PUBLIC "-//W3C//DTD SVG 1.1//EN" "http://www.w3.org/Graphics/SVG/1.1/DTD/svg11.dtd">
<svg xmlns="http://www.w3.org/2000/svg" version="1.1" width="12500px" height="12500px" style="shape-rendering:geometricPrecision; text-rendering:geometricPrecision; image-rendering:optimizeQuality; fill-rule:evenodd; clip-rule:evenodd" xmlns:xlink="http://www.w3.org/1999/xlink">
<g><path style="opacity:0.999" fill="#606467" d="M 2870.5,477.5 C 4763.5,477.5 6656.5,477.5 8549.5,477.5C 8549.5,974.833 8549.5,1472.17 8549.5,1969.5C 6656.5,1969.5 4763.5,1969.5 2870.5,1969.5C 2870.5,1472.17 2870.5,974.833 2870.5,477.5 Z"/></g>
<g><path style="opacity:0.261" fill="#000000" d="M 10417.5,567.5 C 10549.9,1427.7 10682.2,2288.03 10814.5,3148.5C 9095.75,6106.33 7376.75,9064 5657.5,12021.5C 4911.62,10708.8 4165.95,9395.95 3420.5,8083C 3548.6,7214.12 3676.93,6345.29 3805.5,5476.5C 4430.92,6559 5056.09,7641.67 5681,8724.5C 5684.92,8730.67 5688.59,8737 5692,8743.5C 5692.72,8745.26 5693.89,8746.09 5695.5,8746C 7269.39,6019.72 8843.39,3293.56 10417.5,567.5 Z"/></g>
<g><path style="opacity:0.999" fill="#606467" d="M 1693.5,1874.5 C 1696.47,1877.32 1698.97,1880.66 1701,1884.5C 2089.08,2540.33 2477.41,3196 2866,3851.5C 2868.84,3855.65 2870.67,3860.15 2871.5,3865C 2527.12,6400.17 2182.79,8935.34 1838.5,11470.5C 1370.17,11470.8 901.833,11470.5 433.5,11469.5C 853.745,8271.21 1273.75,5072.87 1693.5,1874.5 Z"/></g>
<g><path style="opacity:1" fill="#606467" d="M 4964.5,2717.5 C 5461.5,2717.5 5958.5,2717.5 6455.5,2717.5C 6455.5,3575.83 6455.5,4434.17 6455.5,5292.5C 5958.5,5292.5 5461.5,5292.5 4964.5,5292.5C 4964.5,4434.17 4964.5,3575.83 4964.5,2717.5 Z"/></g>
<g><path style="opacity:0.999" fill="#606467" d="M 11079.5,4846.5 C 11081.2,4847.95 11082,4849.95 11082,4852.5C 11409.6,7058.42 11737.4,9264.25 12065.5,11470C 11535.5,11470.5 11005.5,11470.7 10475.5,11470.5C 10261.7,9978.81 10047.7,8487.15 9833.5,6995.5C 10248.6,6278.99 10663.9,5562.65 11079.5,4846.5 Z"/></g>
</svg>
